<?xml version="1.0" encoding="UTF-8"?><svg xmlns="http://www.w3.org/2000/svg" xmlns:xlink="http://www.w3.org/1999/xlink" viewBox="0 0 747.33 859.64"><defs><style>.cls-1{fill:url(#radial-gradient-2);}.cls-1,.cls-2,.cls-3,.cls-4,.cls-5,.cls-6,.cls-7,.cls-8,.cls-9,.cls-10,.cls-11{mix-blend-mode:multiply;}.cls-2{fill:url(#radial-gradient-5);}.cls-3{fill:url(#radial-gradient-6);}.cls-4{fill:url(#radial-gradient-7);}.cls-5{fill:url(#radial-gradient-3);}.cls-6{fill:url(#radial-gradient-4);}.cls-7{fill:url(#radial-gradient-9);}.cls-8{fill:url(#radial-gradient-8);}.cls-12{fill:#1d1d1b;}.cls-9{fill:url(#radial-gradient);}.cls-10{fill:url(#radial-gradient-11);}.cls-11{fill:url(#radial-gradient-10);}.cls-13{isolation:isolate;}</style><radialGradient id="radial-gradient" cx="320.26" cy="63.27" fx="320.26" fy="63.27" r="142.77" gradientTransform="translate(-491.17 150.88) scale(2.61 2.66)" gradientUnits="userSpaceOnUse"><stop offset=".63" stop-color="#e52925"/><stop offset=".86" stop-color="#a71a17"/><stop offset="1" stop-color="#e41f1d"/></radialGradient><radialGradient id="radial-gradient-2" cx="197.77" cy="435.71" fx="197.77" fy="435.71" r="8.15" gradientTransform="translate(-706.77 -1053.44) scale(3.98 4.31)" xlink:href="#radial-gradient"/><radialGradient id="radial-gradient-3" cx="216.51" cy="437" fx="216.51" fy="437" r="7.07" gradientTransform="translate(-706.77 -1053.44) scale(3.98 4.31)" xlink:href="#radial-gradient"/><radialGradient id="radial-gradient-4" cx="234.23" cy="437.04" fx="234.23" fy="437.04" r="6.8" gradientTransform="translate(-706.77 -1053.44) scale(3.98 4.31)" xlink:href="#radial-gradient"/><radialGradient id="radial-gradient-5" cx="250.94" cy="437" fx="250.94" fy="437" r="6.47" gradientTransform="translate(-706.77 -1053.44) scale(3.98 4.31)" xlink:href="#radial-gradient"/><radialGradient id="radial-gradient-6" cx="268.17" cy="437.09" fx="268.17" fy="437.09" r="6.93" gradientTransform="translate(-706.77 -1053.44) scale(3.98 4.31)" xlink:href="#radial-gradient"/><radialGradient id="radial-gradient-7" cx="285.6" cy="437.19" fx="285.6" fy="437.19" r="6.43" gradientTransform="translate(-706.77 -1053.44) scale(3.98 4.31)" xlink:href="#radial-gradient"/><radialGradient id="radial-gradient-8" cx="299.77" cy="436.68" fx="299.77" fy="436.68" r="6.53" gradientTransform="translate(-706.77 -1053.44) scale(3.98 4.31)" xlink:href="#radial-gradient"/><radialGradient id="radial-gradient-9" cx="311.31" cy="437.04" fx="311.31" fy="437.04" r="4.91" gradientTransform="translate(-706.77 -1053.44) scale(3.98 4.31)" xlink:href="#radial-gradient"/><radialGradient id="radial-gradient-10" cx="325.18" cy="437.04" fx="325.18" fy="437.04" r="6.8" gradientTransform="translate(-706.77 -1053.44) scale(3.98 4.31)" xlink:href="#radial-gradient"/><radialGradient id="radial-gradient-11" cx="342.53" cy="437" fx="342.53" fy="437" r="6.95" gradientTransform="translate(-706.77 -1053.44) scale(3.98 4.31)" xlink:href="#radial-gradient"/></defs><g class="cls-13"><g id="Capa_1"><path class="cls-9" d="M194.67,38.26c-2.61,1.89-3.47,1.51-3.48,1.5-.04-.04,.06-.15,.16-.24,0-.01,1.81-1.58,1.97-1.7,.17-.12,1.2-.66,1.89-.93,.22-.07,.36-.11,.45-.09,.28,.05,.44,.43-.99,1.47Zm-3.21-3.19c-.07-.05-.13,.01-.2,.04-.44,.17-1.42,.66-1.59,.77-.2,.12-.37,.34-.31,.39,.09,.06,.52-.09,.91-.31,.19-.1,1.15-.74,1.2-.88Zm7.64-3.57q.75-.18,1.51-.51c.07-.03,.75-.32,1.85-.92,.01-.01,1.26-.69,1.46-.85q-.09-.03-.28,.04s-4.66,1.74-8.88,4.09l2.35-.96c.67-.28,1.28-.71,2.01-.88Zm-4.92,2.92s-.06-.02-.08-.02c.1-.1,.15-.14,1.87-.9,.59-.26,1.4-.61,1.83-.85,.07-.04,.18-.11,.24-.16-.11,.02-.26,.04-.37,.07-5.05,1.7-8.98,4.42-9.65,5.03,.4,.09,5.79-2.65,6.09-2.9-.02-.1,.03-.19,.05-.28Zm5.12-.5c.11-.07,.21-.14,.3-.23,.17-.16,.31-.34,.48-.5,.3-.29,.62-.55,.93-.84,.18-.17,.18-.21,.18-.23-.02-.02-.04-.03-.17,0-1.02,.35-2.8,1.72-2.91,1.87,0,0,0,.01,0,.02q.17,.09-.29,.75c.14-.02,1.46-.84,1.47-.84Zm-12.63,9.68c-.11-.02-.22,.03-.32,.05-.46,.14-.86,.34-.86,.34-1.2,.62-2.6,1.71-2.69,1.85,0,0,.01,.02,.02,.03,.22-.01,2.48-.95,3.43-1.66,.35-.26,.67-.58,.42-.62Zm2.28,5.41c-.12-.09-.25-.18-.92-.08-.11,.02-.26,.04-.37,.07-1.09,.23-2.19,.45-3.29,.69-1.35,.31-5.71,2.47-6.31,3.34,0,.03,.02,.07,.02,.1,.35,.12,.75-.07,1.09,.17,.53,.38,.38,.63,.26,.81-.2,.32-3.09,2.56-3.87,3-.32,.18-.36,.18-.54,.17-.22-.88,.81-1.18,.83-1.94-.54,.09-3.23,1.58-3.55,2.36-.03,.08-.08,.21-.05,.3,.17,.65,.51,1.24,.63,1.91,.05,.26,.22,.49,.21,.77,0,.49-.3,.94-.23,1.45,.02,.08,.05,.19,.1,.25,.82,.9,8.15-3.58,10.15-5.68,.44-.47,1.72-3.12,.88-3.09-.92,.03-1.73,.5-2.6,.71,1.72-1.2,3.64-2.03,5.36-3.23,.02-.01,2.18-1.93,2.2-2.07Zm-21.05-.33c3.19-1.49,5.88-3.84,9.01-5.43q-3.16,2.07-3.31,2.25l10.7-6.35c.22-.13,.53-.32,.85-.74-.12-.03-.29,.03-.4,.07-2.28,1.06-17.43,9.54-20.66,12.3,1.61-.21,2.62-1.58,3.99-2.27-.05,.05-.11,.12-.17,.17Zm.03,23.5s-.1,.01-.14,.02c-.17,.07-.36,.16-.72,.45-1.39,1.12-2.43,2.64-3.94,3.6-2.51,1.6-3.27,2.09-3.39,2.47,.02,.01,.04,.04,.06,.05,.2,.03,.38-.01,.99-.14,.95-.21,1.07-.2,1.25-.07,.33,.24,.26,.8,.7,.96,.14,.05,.83-.02,1.52-.16,4.34-.84,6.14-2.7,6.15-2.72,.49-.61-.72-2.93-.73-2.95-.53-.95-1.61-1.51-1.76-1.51Zm6.09-19.08c-.1,0-.31,0-.74,.12-2.33,.65-4,2.15-4.08,2.37,.01,.01,.02,.03,.03,.03,.23,0,.46-.12,.69-.02,.05,.17,.07,.2-.16,.68-.14,.29-.5,1.08-.02,.94,.79-.24,3.1-2.36,3.36-2.6,1.11-1.03,1.38-1.48,.92-1.52ZM277.46,9.3c-1.55,1.99-5.61,3.13-7.79,3.75-.1,.02-11.14,3.36-11.61,4.03-3.04,4.26,4.61,5.64,4.71,5.62,18.99-1.45,19.23-1.23,20.56-.03,.1,.09,8.93,10.31,6.06,15.86-1.16,2.26-1.15,2.34-1.1,2.65,.21,1.19,1.58,1.28,1.98,2.29,.61,1.55,0,3.31,.82,4.82,2.5-.61,4.51-3.33,7.49-1.94,5.09,2.36,2.74,6.63,2.7,6.67-2.09,2.58-5.89,2.46-7.77,5.37-1.04,1.6-2.05,5.98-1.27,8.56,4.95,16.59,31.88,43.02,41.59,31.66,1.88-2.19,5.09-19.11,5.12-19.28,.46-2.49-.8-5.13,.57-7.54,.72-1.25,.81-1.28,5.25-2.68q14-4.42,14.37-7.18c.37-2.85,.59-4.42,3.11-5.76,6.11-3.23,13.14-3.68,19.23-6.95,2.5-1.35,5.22-2.21,7.53-3.91,.05-.04,1.2-.91-.23-2.83-2.08-2.79-5.25-4.41-7.25-7.29-1.28-1.84-1.23-4.16-2.12-6.15-1.03-2.32-.57-2.94,.68-4.26,1.73-1.83,.53-2.57-3.03-4.75-11.62-7.15-11.72-7.32-12.72-8.93,.06-.15,.14-.35,.2-.5,.18-.07,.42-.16,.6-.24-3.39-3.46-10.29-.72-11.94-7.29-.35-.18-.82-.43-1.16-.59,.05-.3,.15-.72,.25-1.01,.15-.04,.33-.09,.47-.13-1.52-.22-5.92-.51-5.97-.51-2.94-.18-6.66,.49-7.38,.62-2.55,.48-4.7-1.26-7.15-1.35-3.44-.12-11.01-.14-14.02,.01q-5.55,.32-6.19,.77s-.01,0-.02,0q-6.04,.34-8.93,.92h-.01c-.06,.01-.13-.04-.17,.04,0,.03,.03,.02,.05,.02,.06,.01,.13,.02,.19,.03q3.53,.27,4.59,.55-.29,.03-4.24-.03c-1.62-.02-2.22-.03-4.14,.16-14.16,1.65-24.34,6.41-24.44,6.45q.5,.28,2.53,.28Zm-53.61,62.4c.72-2.01,.4-2.91-.95-2.7-.04,0-4.08,1.12-4.83,3-.42,1.08,1.27,3.89,1.94,4.33,1.65,1.09,3.82-4.57,3.84-4.64Zm28.78-59.64c-.9,.39-1.82,.72-2.74,1.07,2.91-.71,12.3-3.4,13.81-3.84-6.29,2.18-11.26,3.89-16.56,5.06-1.24,.27-1.61,.58-2.09,.96,0,.38-.51,2.25-1.41,3.11-2.8-.88-10.08,3.51-10.36,3.76,.64,.3,1.4,.17,2.01,.57-.03,.1-.08,.23-.1,.33,.94-.13,1.29-.17,4.4-1.37-5.36,3.04-5.98,2.32-6.39,1.84-4.06,.1-4.3,1.71-4.4,2.48-2.31,1.58-5.31,1.75-7.35,3.85,.05,.09,.13,.21,.2,.3,.65,.04,1.11,.06,5.34-.81,3.12-.65,5.89-2.95,9.32-2.16q-.25,.63-.97,1.2c2.28,.47,9.59-3.22,8.93-5.1-.24-.08-.57-.16-.82-.21,.54-.8,5.37-3.99,6.47-4.26,6.52-1.64,8.81-4.19,8.87-4.76-.1-.03-.23-.08-.33-.12,6.04-1.64,8.8-2.4,10.68-3.69q-.49-.04-1.54,.16c.06-.02,13.69-4.44,14.39-4.65-3.52,.53-3.74,.55-5.07,.65,3.38-.94,6.85-1.47,10.25-2.37-3.28,0-8.74,.71-8.78,.72-.13,.02-13.26,2.35-16.1,3.49,.11,.17,.34,.36,.53,.45-.55,.17-1.02,.33-2.4,.15-.96-.12-12.25,2.73-13.41,4.19,.58,.29,.73,.35,5.62-.99Zm-52.81,23.69c-.26,.39-.43,.83-.71,1.18-.41,.49-.46,.53-1.87,1.67,.14-.36,.32-.84,.47-1.2,.06-.18,.17-.36,.17-.57-.11-.06-1.26,.07-2.44,1.34,.13,0,.27-.01,.39-.02,0,.04,0,.1,0,.13-1.36,1.2-3.18,1.39-4.68,2.28,.23,.13,.47-.15,.71,0q-.19,.41-.17,.49,.26,.09,4.62-1.41c-1.37,.8-5.04,2.9-5.32,3.85,.02,.02,.03,.05,.04,.06,.02,0,4.94-1.89,5.57-2.25q.42-.25,3.2-2.77s.09,.17-.01,.45c0,.03-.02,.05-.04,.07q1.28-1.26,4.64-4.16c.72-.62,.77-.67,.88-.86q-.22-.06-.5,0s-4.38,1.35-4.81,1.61c-.05,.03-.1,.06-.12,.1Zm47.62,36.28c2.03-.18,6.49,5.69,6.54,5.75,1.06,1.44,2.17,2.94,3.18,2.74,2.8-.55,6.98-11.68,7.02-11.79,.1-.34,.2-.82,.18-1.18l-20.45-4.83c.57-.47,1.12-.9,6.03-3.18,2.16-.99,3.23-1.49,3.16-2.08-.17-1.52-7.35-8.61-10.84-9.2-1.55-.26-3.19,.23-4.69-.54-1.59-.81-1.39-3.5-3.57-3.68-2-.17-6.31,1.52-9.45,2.76-3.19,1.25-3.22,1.24-3.72,1.21-.21-.54-.44-1.09-.62-5.93-1.29-.53-5.34,.18-6.54,.41-6.15,1.51-24.5,17.53-21.05,19.98,3.42,2.44,15.19-.07,16.77-.87-.24-1.03-.39-1.7,4.74-2.29,4.35-.49,5-1.59,5.43-2.32,1.06,.58,3.86,3.11,3.88,3.13,1.5,1.67,2.13,3.93,3.53,5.67,1.76,2.2,5.82,1.96,5.86,5.99,0,.09-.88,9.13-12.98,12.91-3.62,1.13-7.55,.91-10.98,2.82-1.52,.84-1.57,3.5-1.13,3.9,.66,.62,2.8,.89,9.16-1.35q4.86-1.71,13.5,2.24-.7,.77-4.18,2.13c1.91,1.75,16.68,4.96,19.7,3.22q-.12-.48-.89-.86-.39-.2-6.96-6.57c5.12,.58,6.74,1.26,9.66,3.32,.57,.4,.97,.7,1.25,.61,1.65-.53,4.39-6.99,3.07-8.42-2.86-3.11-8.2-2.7-9.84-7.55-1.35-3.99,5.16-6.14,5.23-6.14Zm-66.82-30.34c.18,.14,1.33-.43,2.26-1.04,.19-.12,.51-.34,.57-.42,0,0-.02-.01-.02-.01-.05,0-.09,.02-.14,.04-.43,.17-2.64,1.24-2.66,1.44Zm116.25,11.34s.81-.37,1.02-.99c.13-.39-.01-.65-.14-.86-.28-.49-.84-.64-1.18-1.07-.21-.27-.22-.52-.22-.67,0-.04-.02-.1-.05-.13,0,0-.4-.28-1.5-.14-1.4,.31-5.39,2.73-3.21,4.12,.47,.3,1.3,.57,2.17,.39l3.12-.65Zm-64.35-10.59s.05-.04,.07-.06c-.32-.52-4.67-1.86-7.89-1.35-2.82,.49-1.94,2.47-1.28,3.03,2.14,1.82,9.03-1.59,9.1-1.63Zm-21.94-15.25c-.89,.35-2.36,.99-2.67,1.23,.14-.01,.28-.06,.4-.11,1.39-.47,2.76-.35,2.76-.35-.13,.51-.8,.5-.92,1.02,.18,.25,2.53-.75,2.7-.84,.85-.47,3.59-2.95,3.59-3.45-.36-.12-.66,.2-1,.2,.31-.63,1.07-.59,1.46-1.11q-.06-.02-.25,.04c-2.46,.84-5.72,2.39-6.13,2.68,.55,.16,1.03-.25,1.57-.21,.07,.21-.21,.38-1.52,.89Zm-11.85,13.59c-.59,.44-.79,.58,.12,1.17,.78,.51,2.75,.05,4.44-1.45,.97-.86,2.95-2.98,2.04-3.07-.11,0-.27,.03-.38,.05-1.57,.45-5.96,3.11-6.22,3.29Zm26.84-15.3s-.03-.04-.04-.06c-.07,0-.16,.02-.22,.04-.06,.02-.14,.04-.2,.06-1.27,.39-2.49,.91-3.74,1.31-1.45,.46-2.96,.76-4.41,1.23-1.03,.34-1.67,.57-1.89,.71,.39,.1,4.63-.63,6.91-1.3,1.13-.34,1.67-.55,3.21-1.68,.13-.1,.27-.19,.38-.32Zm-10.53,2.31s.03,.03,.04,.04c.47-.06,4.82-1.95,6.07-2.57,.55-.27,.66-.38,.68-.62,0-.29-.41-.15-.43-.43,0-.13,.08-.26,0-.4,0-.02,0-.04-.02-.05,0,0-.05-.08-.18-.12-.22-.07-.31-.04-.59,.05-.16,.07-.39,.18-.66,.39-.95,.7-1.58,1.83-2.73,2.27-1.42,.54-1.9,.73-2.17,1.44Zm10.1-6.81c3.07-1.6,3.09-1.63,3.14-1.72-.11-.01-.22,.03-.32,.06-.03,.01-3.1,1.04-4,1.49-1.03,.53-.68,.89-.68,.89,.21,.11,.93-.24,1.85-.72Zm6.64-1.48c1.32-.41,1.73-.52,2.17-.34,0,.05-.02,.11-.03,.16-.38,.25-.82,.4-2.12,.83-3.55,1.18-4.46,1.6-4.69,1.75-.8,.52-.87,1.5-.53,1.66q.1,.04,2.37-.64c.9-.27,1.87-.05,2.77-.39,2.2-.82,4.07-2.32,6.19-3.3,1.33-.61,2.78-.79,4.07-1.47,.09-.05,.21-.13,.28-.21q-.07-.07-1.03-.29s-.02-.07-.04-.1c.21-.14,.44-.24,.67-.35,1.82-.89,1.83-.96,1.86-1.16-.2-.05-.42,.01-.59-.14,.28-.41,.97-.53,.82-1.22,.39-.48,1.01-.65,1.37-1.16-.12,0-.28-.02-.39,0-2.2,.57-10.2,3.7-10.98,4.23,.43,.07,.81-.12,1.22-.19-.6,.52-2.24,.91-2.94,1.07-2.43,.57-3.66,2.01-3.67,2.03,.25,.15,2.91-.67,3.21-.77Zm-25.35,21.4c.2,0,22.47-2.39,28.37-8.48,1.6-1.65-2.35-1.89-2.39-1.89-2.05-.06-12.05,3.54-14.13,4.41-1.85,.78-3.3-1.01-2.91-1.48,.18-.21,.47-.31,1.16-.52,3.61-1.06,1.82-2.25,1.43-2.27-.94-.05-1.74,.53-2.65,.64-1.06,.13-2.08-.28-3.13-.16-.31,.04-1.37,.18-2.03,.36-.55,.23-2.3,2.14-2.28,2.6,.45-.01,.49-.01,1.37-.33,.99-.36,2.37-.85,2.66-.66,.56,.38-1.22,2.74-1.31,2.84-1.09,1.06-2.61,1.45-3.61,2.64-1.95,2.32-1.17,2.31-.55,2.3Zm444.69,316.93c.02-.52,.03-1.07,.05-1.64-.72,10.93-1.2,14.96-1.58,18.17l-.93,7.03-.16,1.12c-.15,1.01-.39,2.35-.57,3.35,.08-.54,.19-1.26,.27-1.8q-.41,2.45-8.87,21.47-1.43-.33-4.63,1.23c-.94-30.44,7.46-60.93-.46-91.34-.24,1.08-.93,2.52-1.75,3.23q-.81-5.82-1.59-7.08l3.25,40.3c1.09,12.8-1.3,25.49-1.05,38.27,.09,4.92,1.16,9.79,.61,14.73q-1.47,13.35-.76,14.37,3.14-.69,4.93-.08c-10.9,38.75-34.03,48.87-42.78,71.15-1.1,2.81-11.68,25.35-23.07,36.71-4.77,4.75-11.22,6.99-16.05,11.65-4.22,4.06-6.57,9.66-10.52,13.95l-17.49,14.53-13.82,10.15c-3.45,2.45-13.95,9.9-22.87,7.01,1.97-4.67,3.01-5.8,4.91-7.82,2.8-3,3.3-3.54,20.72-35.84,4.48-8.3,5.03-18.19,9.88-26.34,5.21-8.76,12.75-15.86,16.7-25.51,8.57-20.98,6.48-30.54,4.95-37.52-2.47-11.2,9.86-18.44,5.8-31.25-2.77-.9-5.98,.2-8.44-2.03-2.51-2.27-.68-6.32-3.25-8.57-.35-.31-.9-.71-1.36-.76-14.27-1.6-27.73,3.87-41.66,5.24-2.81,.27-17.62-14.46-19.59-18.75-4.69-10.22-10.19-20.05-14.14-30.64-2.65-7.07,5.72-9.96,5.61-16.07-.12-7.27-4.85-13.54-4.21-20.97,0-.02,15.4-27.86,17.5-31.37,.71-1.2,6.52-5.88,9.89-7.59q3.76-1.89,4.49-16.43c.06-1.34-.28-3.33,.45-4.43,2.43-3.75,7.36-3.68,10-7.13,2.11-2.77,.47-6.67,2.64-9.43,.36-.47,1-.96,1.43-1.36,.02,0,.04,0,.68,.46,3.53,4.41,4.64,4.17,7.89,3.49,.22,0,.44,.01,1.71,.13,11.48,4.14,20.83-9.05,32.38-4.36,.53-.93,1.44-2.03,2.18-2.78q8.91,2.13,11.05,.43c1.59,.89,2.13,1.2,4.77,3.01q1.01,13.65-.31,15.84c-.56,.92-1.28,2.62-.75,3.56,1.74,3.01,26.07,26.06,28.36,27.81,.46-.19,1.05-.45,1.51-.64,1.42-3.93-.21-8.38,1.85-12.21,11.07,.19,10.1,16.25,20.71,17.06,.61-.66,1.84-1.17,2.71-1.19,1.02,3.26,1.55,3.97,4.73,4.25,2.43-6.24,2.24-9.79,1.05-32.91-.88-.36-1.95-1.14-2.61-1.84-.09,1.01-.39,2.35-.72,3.3-2.73-1.72-3.5-5.15-5.85-7.2,.02,.49,.04,1.15,.06,1.64-.33,.35-.78,.83-1.12,1.18-7.22-6.34-8.66-17.69-9.43-23.8-.44-.13-1.03-.31-1.47-.45-.05-1.1,.04-2.59,.2-3.68,1.91-1,4.31-.04,6.08-1.62-.65-.65-1.29-1.8-1.48-2.71,.94,.22,2.18,.59,3.1,.91,.62-.69,1.1-1.98,1.17-2.94,7.73-2.11,7.48,8.89,12.24,12.21,.41-.24,.98-.56,1.38-.8,.36-12.19-8.64-20.14-12.62-30.36,.28-.41,.64-.97,.91-1.38q-1.26-5.14-2.13-6.57c.24-.47,.57-1.08,.81-1.54-.71-1.98-1.13-2.82-3.59-2.27-1.64,4.85,6.61,10.73,1.08,14.05-1.3-1.89-1.99-4.16-3.49-5.93q.54-3.26,.05-5.36c-1.69-1.05-2.27-1.51-3.72-3.26,.2-.44,.46-1.04,.66-1.47-.8-.39-2.12-.47-2.95-.16-1.42,11.91,6.76,22.23,5.22,34.17-.49,.03-1.15,.07-1.66,.11-.32,.96-.86,2.21-1.35,3.11-.99-3.81-5.71-6.74-7.96-7.24q-1.24,.98,1.29,14.08c.78,4.04,2.32,7.92,2.33,12.11,0,1.03-.09,2.4-.22,3.42l-7.39-17.65q-6.94-20.81-7.03-20.95l-23.34-28.56c-.86,.34-1.87,1.23-2.36,2.04,10.29,21.92,13.35,23.33,17.2,25.12-.11,.5-.26,1.16-.38,1.65q8.22,10.28,8.73,12.89c-.64-.87-1.46-2.05-2.08-2.94-.47,.13-1.09,.3-1.55,.42q-.04,2,1.48,7.54c-1.19,2.04-1.71,4.41-2.99,6.41-.45-.06-1.06-.15-1.52-.21-.52,2.88,1.21,5.67,.33,8.56-.05-.02-6.25-5.63-8.26-9.18,10.25-1.47,11.08-1.59,9.28-7.74-2.39-8.14-26.67-37.18-26.89-37.38-4.42-3.97-6.77-.58-9.6,4.65-3.1-.01-5.69-4.61-9.01-1.73q-.77,.66-.88,10.28c-7.16,2.94-7.3,2.99-10.07,14.91,2.6,4.27,1.39,10.6-3.42,11.23l-17.4,6.01q-.07-.11-1.29-5.34c-3.19-.75-4.73-.63-12.16-.02q.18-.84,1.17-9.99c-3.66-1.12-4.85-30.78-4.83-31.07-.71-.81-1.53-2.01-2.06-2.97,10.63,1.13,20.92,4.46,31.61,5.25,.13-.22,3.73-24.22-19.21-30.86,.39-.29,.93-.68,1.32-.98-.97-.89-2.24-2.06-3.2-2.94,.2-.47,.48-1.09,.68-1.55q3.83,.1,6.2,1.69c1.03-.27,2.38-.78,3.36-1.21,.15-.5,.36-1.17,.51-1.67-.63-.9-1.42-2.15-1.95-3.13,2.13,1.62,2.92,2.23,7.81,2.49,.44-.99,.72-2.46,.74-3.55,1.15-.38,2.6-1.13,3.58-1.83q-1.82-4.67-1.84-4.91,2.4-.93,6.64-.83c.25-.45,.57-1.05,.82-1.5-1.7-4.93-2.19-7.62-2.45-9.07q1.39-1.42,6.47-1.27c.28-.41,.66-.96,.94-1.37,.96-.16,2.25-.38,3.21-.55,1.36-.27,1.41-.33,1.64-.59-.05-.14-.13-.44-1.97-2.65-4.53-5.46-10.92-17.08-11.29-18.16-.86-2.53,4.12-2.5,4.33-2.5,1.74,.2,4.08,7.02,4.02,8.63-.16,3.91,2.93,8.47,5.56,11.6,3.57,4.27,3.87,4.25,5.14,4.18,3.74-.19,5.83,1.44,6.61,2.05l-4.63-.84c2.64,.57,5.17,1.31,7.16,2.5,.4-.26,.94-.59,1.33-.85q.06-.96,9.67-.26h.07c-.1-.14-.25-.33-.35-.48,.27-.68,.37-1.42,.66-2.09q.4-.11,2.49,.09c.19-1.65-2.58-5.37-3.14-6.1-.42-.55-4.52-8.4-4.56-8.46,.12-.18,.26-.42,.36-.6,3.66-.3,3.9,4.85,7.29,4.99-2.69-5.59-7.62-9.28-11.07-14.23,3.16,.43,6.06,1.8,9.1,2.71-.37-.62-.8-1.19-1.12-1.84,.15-.1,.36-.23,.51-.33,.83,.33,1.59,.85,2.49,.98-5.23-5-13.14-4.23-18.34-9.28q-5.96-5.78-12.26-20.43c.2-.02,.46-.05,.66-.07-.6-1.75-8.72-7.34-11.14-8.18-.1,.16-.23,.37-.33,.53,.12,.26,.26,.62,.37,.88q.2,.4,6.73,7.49c2.5,2.71-.3,6.3,1.39,9.15q4.44,7.47,7.72,9.73c4.73,3.26,4.92,3.89,4.85,5.58-1.83,1.76-2.67,2.55,.97,9.57,1.58,3.06,1.33,9.73,.82,10.68-2.5-.01-3.87-2.4-5.32-4.93-3.04-5.33-19.34-22.21-20.09-22.78,.71,2.43,2.16,7.46-.76,8.88-9.11,4.39-18.96-19.65-19.06-19.9-.73-1.84-.76-2.33,.6-3.35q3.69-2.75,4.61-9.74c.03-.28,.22-2.9-4.48-10.43-.06-.1-6.36-11.66-6.62-13.7q-.16-1.37,.82-3.61c-.52-1.27-1.87-1.88-2.38-3.17,2.7,1.01,4.07,4,6.8,4.98q-1.3-1.59-1.67-2.52c.58,.18,8.41,3.91,9.14,5.69-.39-.11-.89-.3-1.27-.45,4.27,3.02,5.37,3.45,5.94,3.68,.14-.11,.33-.27,.46-.38,1.79,1.11,2.18,1.44,2.88,2.03-.35-.17-.82-.36-1.19-.48,.68,.65,1.37,1.32,7.78,5.36,8.93,5.61,22.48,17.82,23.62,19.98-4.85-2.32-8.36-6.61-12.82-9.49,8.92,7.39,16.43,16.41,25.26,23.91,.14-.1,.34-.24,.48-.34-2.08-2.19-4.74-3.76-6.22-6.57,.89,.66,1.7,1.43,2.65,2-5.26-5.68-5.47-5.97-6.01-6.74,.49,.44,.96,.88,1.44,1.34l.03,.04,12.65,13.34c11.85,13.28,12.21,13.8,31.32,40.98,4.46,6.95,9.83,16.6,14.02,23.73-2.98-4.39-6.82-8.03-11.61-11.2,5.13,3.42,8.61,7.07,11.61,11.2l10.88,22.19c4.86,10.97,6.52,14.72,10.1,25.73-.05-.05-.08-.1-.14-.16q.17,1.7,10.35,36.88c-.05-.09-.12-.23-.17-.33,4.16,25.85,4.35,27.03,6.47,34.33,.34,2.37,.7,4.91,1.09,7.67,.91,9.2,1.34,21.53,1.83,30.76,.06,9.07-.55,20.91-.96,30.38Zm.05-1.85c.21-10.55-.36-28.88-1.74-31.06-.49,3.14-.84,5.41-.01,30.19q.2-1.6,.5-5.23-.45,11.44,.17,12.82c.46-1.72,.63-2.4,1.08-6.72Zm-7.97-101.58c.1,.41,.23,.96,.32,1.37l1.59,7.39c-.03-.12-.06-.25-.09-.36,.56,4.39,1.39,8.72,2.22,13.06-2.43-16.23-3.32-19.56-6.92-33.07-.65-2.09-1.26-4.06-1.83-5.9,3.73,13.26,3.85,13.81,5.42,20.8-.23-1.1-.47-2.19-.7-3.28Zm-5.68-20.94c.15,.42,.3,.84,.47,1.26-.47-1.59-1.1-3.13-1.43-4.77,.18,.52,.35,1.04,.51,1.57l-3.77-11.64,.05,.15c-.46-1.28-.57-1.55-.71-1.74,1.49,4.59,3.3,10.41,5.85,18.6-.3-1.06-.61-2.18-.97-3.42Zm11.93,56.61c-.47-4.78-1.34-9.5-2.21-14.21,.54,3.64,1.16,7.95,1.91,13.16,.1,.34,.2,.68,.3,1.05Zm-181.1-155.5c-.02,.09-.07,.2-.12,.28-1.19,2.43-2.06,7.06-2.06,7.1-.3,1.86-.2,2.75,.4,3.51,1.02,1.28,5.75,.74,9.19-1.56,.87-.58,1.67-1.26,2.6-1.75,1.08-.56,2.53-.15,3.36-1.37,.47-.69,.28-2.29-.57-4.74-.43-1.25-.95-2.02-1.49-2.84-.9-1.38-.95-1.88-.35-3.32,.25-.61,.68-1.64,.35-2.93-.32-1.27-1.26-2.15-1.99-2.66-.36-.26-.88-.56-1.29-.76-1.09-.54-2.29-.81-3.39-1.33-.8-.38-1.08-.69-1.21-.84-.1-.1-.11-.12-.22-.11-.3,.08-7.45,1.93-2.95,4.55,.28,.17,.45,.26,1.08,.32-.16,.17-.45,.3-.65,.41-2.97,1.51-3.67,2.26-4.35,2.98-.48,.51-1.01,1.39-.8,2.75,.18,.49,.43,1.16,1.6,1.76,.9,.47,1.92,.28,2.85,.54ZM171.28,47.07s.02-.02,.03-.02c0,0,0,0-.02,0-.69,.38-6.39,3.82-6.68,4.21,.29,0,.59,0,6.66-4.19Zm447.9,227.79c.05-.02,.1-.05,.15-.07-.02-.04,0-.09-.02-.12-.02-.03-2.73-3.66-2.73-3.67-.49-.56-.99-.72-1.18-.78-.88-.22-1.81-.2-2.67-.53q-1.54-.61-1.67-.6c-.7,.04-.9,.65-.48,1.41,.91,1.63,6.98,4.93,8.6,4.36Zm-57.59-44.45c.56,.63,1.75,.32,1.98,1.45,.21,1.02-.18,2.06,.09,3.08,.23,.83,.79,.98,1.03,1.04,.65,.17,3.97-.94,4.04-3.71,0-.31-.04-.73-.07-1.03-.16-1.15-.58-2.25-.74-3.4-.16-1.24-.09-2.49-.26-3.72-.27-1.95-.94-2.18-1.61-2.25-1.06,.03-3.65,1.05-4.57,2.83-.55,1.05-.68,4.82,.12,5.72Zm-16.5-.55s1.35-1.57,1.35-1.65c.12-.56-.82-1.03-2.47-1.22-1.79-.18-4.65,.22-3.53,1.56,.62,.74,2.96,1.78,3.93,1.73,.33-.02,.49-.18,.72-.41Zm16.48-15.63c-.27,.26-.54,.5-.44,1.11,.03,.22,.25,.66,.47,.94,.02,.03,2.59,3.18,2.76,3.26,.59-.29,.05-5.04-.46-7.51,0-.04-.82-3.78-1.33-4.12-.02,0-.05,0-.07,.01-.03,.04-.11,.14-.15,.38-.02,.07-.04,.17-.05,.24-.2,1.19,.19,2.35,.19,3.54,0,1.32-.53,1.8-.93,2.16Zm68.25,69.1s1.51,.3,1.65,.15c.23-.25,.54-3.8,.54-3.84,0-.07,0-.15,0-.22,0-.39-.08-.41-.18-.44-.44,0-.81,.3-1.26,.3-.28,0-.63-.12-.93-.32-.39-.26-.65-.7-1.09-.9-.35-.16-.5,.05-.57,.14-.42,.56,.03,3.31,1.06,4.55,.32,.39,.62,.52,.77,.57ZM139.2,71.99s.08,.09,.11,.12c.12-.01,.28-.08,.38-.15,1.82-1.3,3.39-2.93,5.2-4.24,3.27-2.37,6.8-4.35,10.03-6.8q.75-.57,1.7-2.43c-.02-.06-.06-.14-.08-.21-1.14,.25-1.97,1.08-2.96,1.62q.82-.75,.96-1.35s-.09-.05-.13-.08c-.11,.03-.27,.08-.39,.12q-4.03,1.76-21.8,16.97c-1.55,1.33-2.77,2.38-4.05,5.15,.05,.02,.12,.05,.16,.07,4.26-2.09,7.24-5.88,10.87-8.81Zm24.91-17.56c.44,.05,1.86-.78,3.24-1.58,5.49-3.21,8.3-4.47,8.31-4.48,1.77-.71,3.62-1.21,5.31-2.13,1.35-.73,6.43-4.42,6.47-4.46,.98-.71,1.05-.83,1.16-1.03-.71-.05-1.53,.42-1.54,.43-1.56,.92-2.9,2.19-4.45,3.12,1.92-1.98,4.17-3.58,6.03-5.62-.06,.01-.14,.02-.21,.02-.06,.04-6.41,3.43-6.61,4.35-.14,.67-1,2.37-5.86,3.55-.03-.03-.07-.08-.1-.11,.11-.16,.25-.3,.37-.43,.04-.04,.09-.09,.12-.13,.66-.75,2.91-1.2,1.98-2.28-.13,.03-13.12,6.57-13.23,8.45q.06,.04,6.29-3.55c-.63,1.08-1.79,1.45-2.68,2.18,.16,0,.2,0,1.72-.86,.41-.23,1.18-.66,2.75-1.25-1.43,1.01-6.05,3.54-8.66,4.75-.93,.43-.94,.99-.43,1.05Zm-36.17,33.55c.94,.24,1.66-.62,2.56-.58,.05,.05,.09,.12,.14,.17-.41,1.17-1.47,1.84-2.03,2.9,1.08,.02,9.81-4.03,14.76-8.18,1.59-1.33,2.25-1.89,3.14-2.24,.05,.04,.13,.09,.19,.12q-.41,.81-.46,.99c.42,.43,3.73,1.17,3.76,1.17q3.11-1.09,6.15-4.64c.1-.13,.13-.16,.14-.19q-.32-.06-3.21,1.56c.32-1.07,3.36-3.47,5.44-3.36,.75,.04,.9-.01,1.17-.22,.02-.01,1.6-1.51,1.33-2.86-1.64-.97-2.32-2.86-1.44-3.97,.76-.98,7.49-9.58,7.34-10.28-.31-.17-.65-.22-.98-.34-.04-.11-.09-.24-.13-.34-.02,.02-.06,.04-.08,.06-3.11,2.74-5.24,6.57-8.88,8.74-.35-1.56,1.2-2.06,1.64-3.18-.08-.06-.2-.14-.28-.21-1.43,.56-2.62,1.68-4.15,2.03,.42-.7,1.16-1.14,1.52-1.91-.04-.05-.11-.12-.15-.16-2.03,.63-3.55,2.29-5.5,3.06,1.2-1.74,3.19-2.51,4.56-4.05-1.22,.13-17.2,10.89-16.82,12.89,.2,.08,.44,.22,.62,.34-.31,.54-.32,.56-2.21,1.75-3.18,2-3.32,2.4-3.3,2.87,.16,.08,.41,.12,.58,.08,1.77-.36,3.21-1.6,4.98-2,1.25-.29,2.5,.28,3.75,0-2.23,1.79-5.21,2.73-6.48,3.13-8.35,2.62-9.16,6.47-7.67,6.85Zm73.07,15.78c.27-.74-.45-.7-1.01-.62-.03,0-2.43,.47-3.05,1.25-.87,1.12-.65,2.69-.28,3.01,.9,.79,3.96-2.62,4.33-3.64Zm-4.07-6.1c.1-.04,.43-.23,.56-.49,.27-.58-.15-1.53-.46-1.83-.53-.52-1.23-.81-1.72-1.37-.87-.96-1.32-2.25-2.34-3.09-.15-.12-.37-.27-.54-.37-1-.65-2.25-.53-3.26-1.17-.64-.41-.65-1.34-1.3-1.75-.07-.05-.2-.04-.29-.01-.92,.45-4.03,5.01-4.15,5.2-.4,.59-.91,1.4-1.28,2.01l-3.4,5.73q2.02,.17,2.18,1.23,.2,1.35,.39,1.32c.27-.05,.82-.51,1.92-1.48,1.59-1.4,4.25-3.73,7.37-4.09,2.1-.25,4.19,.95,6.31,.17Zm-5.59,3.92s-4.51,1.01-5.97,2.2c-.87,.7-1,2.67-.51,3.04,.93,.71,6.56-2.76,7.58-4.39,.32-.53,.4-1.1-1.1-.85Zm-11.51,262.24c-1.7,.72-.73,3.51,.32,3.9,.71,.27,5.14,1.13,5.05-.79-.06-1.14-3.14-3.62-5.37-3.11ZM488.92,133.34c-.31,.04-.26,.22-.18,.55l2.15,.17c-1.16-.55-1.62-.73-1.97-.73Zm-207.62,23.61c2.04-2.78,2.94-4.63,2.67-5.5-.11-.04-.26-.09-.38-.07-1.11,.39-4.09,3.03-6.39,5.97-2.78,3.57-4.68,7.76-7.41,11.36-1.46,1.92-3.48,3.28-4.85,5.28-.52,.77-.1,.99,.12,1.11q.36,.19,8.62,.89c4.72,.4,8.2,.83,11.88,1.88,.42,.12,.98,.32,1.41,.36,1.34,.08,2.73-1.31,4.04,.12,.65,.71,.71,2.02,.76,2.88,.05,.93,.47,1.02,.72,.99,1.32-.16,2.96-2.82,3.13-5.06,.26-3.62-2.38-9.24-5.03-12.21q-1.38-1.54-6.23-.44c-1.48,.33-1.8,.01-2.14-1.27-.65-2.43-1.22-2.86-2.11-3.34-.48-.26-.48-.42-.25-.91,.34-.67,.98-1.43,1.43-2.03Zm193.07-44.84c.27,1.76-1.03,3.4-.36,5.18,.52,.21,1.61,.08,3.9-1.73,.84-.67,1.56-1.24,2.13-.91,2.36,1.35-.38,4,.43,5.93,1.64,3.9,3.56,4.43,5.99,5.1,3.81,1.04,4.3,1.17,5.01,1.68,.12,.63-.23,1.28,.1,1.9,1.02,1.9,2.83,3.19,3.74,5.19,.48,2.05-1.92,.86-3.69-.01q-.75-.37-2.9-.55c.86,2.6,3.67,3.85,4.23,6.65,.3,1.51-1.05,2.31-2.99,3.28-.51,.25-1.3,.65-1.01,1.26,.15,.32,1.01,1.35,5.64,1.21,1.96-.05,6.06-.18,6.17,1.21,.1,1.27-.84,1.26-2.24,1.23-1.37-.02-1.78,.38-2.31,.88-.99,.94-1.15,2.41-2.02,3.43-1.08,1.27-2.55,2.04-3.66,3.27,.01,.12,.04,.28,.05,.4q.62,.15,9.47-1.01c4.48-.58,9.01-.22,13.48-.89,.04,0,.11,0,.16-.03l7.69-2.71c.05-.07,.06-.19,.08-.27-1.6-1.65-3.63-.19-5.37-.83-.83-2.41,1.32-4.62,.44-7.03-1.57-4.31-3.2-4.22-4.51-4.15-2.98,.16-5.01-4.18-5.01-4.23,.02-.06,.06-.14,.09-.2q.19-.06,2.52,.48c1.06,.38,2.5,.91,2.4,.35,0-.03-.02-.06-.03-.09-.15-.22-.41-.62-1.23-1.29-3.62-2.92-8.15-4.37-11.45-7.77-1.58-1.63-2.72-3.7-4.65-4.98-3.34-2.22-6.4-2.68-7.94-2.75-.01,0-.02,0-.03,0,1.95-1.81,4.53-10.79-.73-11.01-.95-.04-2.03,.11-2.75,.2-3.32,.45-3.93,.53-3.95-.37-.05-1.81,2.92-5.21,.49-5.36-.07,0-6.54,.13-7.5,2.53-.08,.22,.02,.56,.07,.8,.31,2.14,1.73,3.86,2.06,5.98ZM45.75,200.37c.84-2.03,1.29-4.19,2.07-6.24,.46-1.23,1.01-2.42,1.44-3.66,.05-.14,.1-.33,.15-.47,.02-.05,.35-1.16-.18-1.03-.08,.02-.19,.09-.26,.14-1.75,1.48-3.74,10.97-3.39,11.55,.07-.07,.14-.19,.18-.29ZM431.96,67.08c0-.12,.03-.27,0-.38-.37-.68-1.42-1.95-2.67-2.47-.21-.08-.49-.19-.7-.25-1.87-.53-3.88-.06-5.72-.84-1.31-.55-2.28-1.9-3.85-1.82-1.8,.46-3.5,1.24-5.31,1.68-1.75,.43-3.59,.32-5.31,.93-1.1,.38-.3,1.8-1.17,2.32-.93,.56-1.89-.49-2.81,.07-.14,.09-.33,.21-.46,.31-.35,1.61,1.04,3.47-.65,4.89-.52-.22-4.47-3.6-5.12-4.89-1.48-2.92-7.75-4.74-9.5-3.28,.49,1.48,2.22,1.16,3,2.24-.49,2.15-2.94,1.8-3.93,3.32,.57,.42,2.55,.13,3.65-.08,1.95-.37,8.09,1.85,4.66,4.8,1.47,1.88,3.42,.28,5.08,.77,1.74,.5,1.74,1.17,1.76,2.76,.4,.36,.75,.51,4.2,.13,2.26-.25,3.03-.31,3.76-.26,1.65,.12,3.19,.88,4.83,.98,.2,.01,.47,.03,.68,.02,.58-.01,1.39-.02,5.97-1.19,4.14-1.05,10.45-5.82,10.13-7.21-.2-.91-.95-1.51-1.2-2.39q.2-.19,.71-.16ZM185.44,356.11c1.81,2.46,13.14,3.34,13.34,1.97,.1-.75-14.41-18.18-14.57-18.29-1.49-1.07-6.01-4.33-14.37-2.57-4.68,1.6-7.95,4.91-7.97,5.02,.6,.6,4.18,.05,7.11-1.71,4.2-2.5,7-1.1,7.27-.33-.23,.44-.8,1.06-2.14,.26-.05,.03-.11,.08-.15,.12,.17,2.11,3.54,2.99,5.77,3.58,4.1,1.08,4.38,1.99,5.23,4.69,.42,1.35,.69,2.17,1.56,3.31,.6,.78,1.04,1.36,1.07,1.81,.1,1.45-1.47,1.38-2.13,2.14Zm18.06,14.48c1.17,.69,.24,2.94,1.91,3.12,2.89,.3,2.57-3.77,5.05-4.03,.27-.03,.52-.01,1.4,.14,4.44,.79,12.09,1.03,12.12,1.02,.37-.06,.62-.14,.64-.5,.07-1.34-1-2.46-.66-3.85,1.05-4.31-20.06-6.21-21.39-5.98-.34,.1-.39,.13-.53,.27q0,.33,.31,.63c3.1,2.98,2.1,6.48,1.94,6.63-.4,.36-2.08,.08-4.4-.31-4.27-.72-4.68-.58-4.93-.5,.05,.08,.08,.21,.15,.25,2.6,1.61,5.77,1.56,8.39,3.11Zm42.51-204.24c-1.81,.7,2.32,2.8,3.17,3.21,5.45,2.66,7.35-.22,7.36-.25,.67-1.54-8.55-3.3-10.54-2.96Zm340.96,353.58c-5.98,8.03-6.13,8.09-10.04,9.54-3.2,1.19-4.21,2.71-9.03,10.02-2.39,3.63-3.29,4.37-5.67,6.31-7.24,5.92-17.03,18.92-17.31,19.99q2.63,.03,12.6-9.92c8.14-8.11,15.28-17.18,23.06-25.64q-.03,.23-.71,1.42,.31-.23,1.05-1.21c1.83-2.41,7.44-10.31,8.35-13.13-.06-.03-.14-.07-.2-.09q-.62,.72-2.09,2.7Zm-200.32-54.67c.03,.15,.02,.37,0,.53-.02,.13-4.41,14.07-16.76,18.75,.1,.43,.37,.97,.62,1.33,1.36,1.94,.65,3.04-1.28,5.99-1.66,2.55-.18,5.24-.31,7.85-.22,4.68,.19,9.37-.41,14.03-.28,2.13-.45,2.1-2.61,1.81-1.25-.17-2.75-.13-4.41,1.44-3.7,3.51-3.77,9.92-9.01,12.18-2.3,.99-7.86,3.81-9.98,8.56-.05,.37-6.33,37.57-21.09,37.99l1.91,2.79c1.68,2.55-.49,8.15-6.98,6.08-.28,.18-.64,.42-.92,.59q.27,2.71-3.39,6.11,4.76,6.88,4.79,7.31-3.94-.13-4.79,.16,5.49,15.73,8.39,18.96-1.97,9.22,18.93,20.44c-.2,.07-21.91,3.7-44.35-29.2-17.69-25.94-27.86-73.44-27.95-73.89-1.87-10-5.77-17.65-10.97-21.54-6.83-5.11-15.61-6.44-22.09-12.26-.21-.19-26.74-27.52-33.2-37.51-.38-.59-.8-1.43-1.13-2.05-2.05-3.79,2.72-24.11,2.78-24.29q4.93-11.27,4.33-13.98c-1.93-8.56-7.33-26.84-16.1-11.6-19.7,.73-27.15-22.47-45.14-25.09-.6-.09-1.41-.19-2.01-.25q-4.02-.45-15.47-7.25c-5-2.97-10.42,.09-15.52-1.2-4.98-1.26-10.07-2.08-15.03-3.41-1.42-.38-3.15-1.4-4.52-1.94-.74-.31-1.78-.69-2.44-1.17-4.82-3.53-3.7-9.77-6.05-14.44-2.9-5.79-8.81-8.74-12.28-14.01-2.68-4.06-5.76-7.81-8.27-11.99-1.18-1.95-1.84-5.08-2.42-7.84-.82-3.88-1.47-6.94-7.64-11.63,4.92,20.78,7.82,25.08,10.39,28.88,5.65,8.36,4.49,10.12,3.37,11.82-.11-.14-12.39-16.68-14.08-20.35,.99-.06,2.31-.1,3.3-.11q-13.93-29.73-14.75-29.87c-6.4-11.68-3.05-74.23,6.56-86.7,.8,.41,1.85,.99,2.63,1.45,.13-2.48-.66-4.79-1.45-7.09,0,.04-.02,.08-.01,.12,.02,.39,.11,.77,.09,1.16,0,.27-.04,.9-.26,1.47-.25,.63-.65,1.07-1.07,1.2-.02,0-1.64,.33-2.3-2.04-.81-2.87-.09-6.37-.09-6.39,.01,0,.02-.01,.02-.02,.3,.07,.65,1.3,.74,1.66,.2,.73,.24,.77,.34,.88,.11,.13,.29,.19,.62,.21,.7,.05,1.15,.17,1.43,.27-.72-2.21-1.26-4.45-.79-6.88q1.96-10.2,3.77-16.16c-.26-.45-.61-1.04-.87-1.49,.38-1.18,.87-2.76,1.24-3.95q.7-4.08,6.4-19.06c-.12,.2-.29,.47-.42,.67,8.44-14.6,8.87-15.19,28.08-41.25,4.47-5.22,10.41-12.17,14.87-17.39-.31,.4-.7,.99-.94,1.45,7.21-7.49,12.97-12,13-12.02-2.59,2.5-5.35,4.8-7.9,7.34h.02q8.07-7.15,12.49-11.39-2.57,3.3-3.41,5.13,1.63-1.63,2.63-2.39c-.35,.46-.76,1.14-1.03,1.66,1.45-1.03,2.5-2.67,4.35-3.08,.38,.35,.84,.89,1.13,1.33,2.6,.29,2.73,.21,3.64-.3,.21,.12,.48,.27,.69,.39-.63,2.8-3.32,3.43-4.99,5.14,3.99,.62,6.99-2.5,10.65-3.11,.23,1.99-1.51,3.69-.77,5.75,4.02-8.17,6.04-12.27,12.82-14.09,.58,.81,.48,1.91,1.02,2.73,8.38,.41,10.65-1.09,11.02-1.4q6.79-5.57,8.88-5.01-3.64,4.05-1.69,6.16c2.07-5.02,7.62-6.57,10.16-11.11-.23-.06-.54-.13-.76-.18h-.02l.03-.66c1.21-1.21,1.63-1.45,4.28-2.82-.06-.24-.14-.57-.19-.81-1.27,.08-2.52,.37-3.79,.37-.12-.26-.28-.6-.4-.87,.12-.22,16.24-23.53,28.16-26.43q1.67-.31,2.71-.19-14.89,9.14-18.09,14.28c.25,.19,.6,.45,.84,.64q0,1.14-5.59,10.52,3.23,.13,3.42,.21s-3.72,5.05-3.08,6.94c2.67-2.45,4.12-6.24,7.73-7.66,3.18,3.48-3.63,5.74-4.12,9.25,5.67,5.28,9.02-6.11,13.69-8.9,2.55-11.42,10.12-3.36,10.21-3.28-.42,.86-.52,1.85-1.11,2.63-1.06,1.16-2.96,1.01-3.76,2.59-.87,1.71,.72,3.53-.24,5.23-.35,.6-.95,1.32-1.47,1.79q-2.36,2.16-11.36,5.55c-2.7-1.78-5.27,1.45-5.29,1.48,.48,.03,1.12,.27,1.52,.56-3.92,6.29-10.58,2.9-15.74,4.84,4.36,2.59,5.48,2.38,10.85,1.4q-7.9,8.76-21.77,11.33c1.36,1.12,3.75,.12,4.57,2.39-7.13,5.52-23.83,18.43-22.63,25.56q5.29,.43,5.68,2.77,1.07,6.71,1.93,7.43c2.44-.73,4.45-2.89,7.27-2.39,.55,.09,1.27,.29,1.81,.48,3.08,1.13,4.73,4.53,7.95,5.44,3.16,.89,6.72-1.79,9.67,1.17,.54-.02,1.27,.04,1.81,.12,.07,.28,0,.84,.07,1.11-.47,.39-1.28,1.1-1.76,1.49,.92,2.37,1.64,4.24-.04,9.38,3.1,2.31,7.07,3.33,9.31,6.9,7.16-5.16,3.03-13.33,4.68-19.87,1.26-1,1.41-1.15,1.72-1.56-.66-2.38,2.44-3.41,3.8-3.74,6.24-1.5,6.04-12.77,6.03-12.89-.09-2.81-2.93-4.51-2.76-7.42,.14-2.51,2.82-3.23,3.49-5.37-3.49-4.57,1.67-8.5,.87-12.87,4.42-1.92,9.27-.87,13.79-2.14,.83-.08,1.09-.11,2.19,.27,4.95,1.7,5.44,2.58,5.65,2.96,.63,1.1,.92,1.44,1.38,1.62,2.01,.76,4.12-.25,6.13,.45-2.08,1.75-3.43,9.07-2.83,10.18,3.42,.79,6.17,4.12,10.1,2.87q.64-.2,2.89-3.42c.99-1.4,2.88-.25,3.91-1.5,.91-1.09-.49-2.22,.06-3.32q3.54-7.05,10.78,6.42,2.88,5.34,1.57,7.25c-.9,1.29-1.22,1.88-.75,2.54,1.12,1.58,3.35,1.18,4.48,2.74,.84,1.16-.11,2.49,.31,3.69q.7,.24,2.05-.12c23.4-6.4,1.17,8.91,.9,9.3,.18,.43,.42,.99,.61,1.42,5.38-3.66,8.41-3.97,9.41-4.08,.01,0,.03,0,1.44,0,1.65,.35,3.29,.73,4.94,1.09,.28,.44,.64,1.03,.91,1.47q-1.48,3.82-.47,6.4c-3.14,5.94-23.69,16.55-28.26,13.3q-20.1,6.35-39.68,27.56,28.44-18.53,30.48-16.43c-.85,4.17-3.73,4.98-7.72,6.12,1.14,1.45,1.31,1.68,3.98,2.7,1.11,3.58,1.59,5.08,4.43,6.47-.84-1.78,.07-4.18,.23-4.43,.02-.01,.06-.04,.08-.05,.05,.04,.12,.08,.09,.57-.1,1.26,.12,2.15,1.57,2.91,.59,.31,2.26,.97,5.19,.5,.43-.07,.48-.08,.62-.04,.01,.01,.02,.04,.03,.05,0,.03-.02,.07-.03,.09,0,.02-1.26,1.85-2.89,2.21,1.64,.51,3.62,1.09,6.05,1.79,1.88-2.95,2.01-6.96,5.13-9.14,4.06,10.67-18.69,24.45-26.08,24.32q.14-2.36,11.06-10.43v-1.7c-1.05,.03-2.42-.33-3.39-.71,.19-.42,.44-.97,.63-1.38q-18.85,11.38-19.95,11.32-6.5,6.33-7.72,18.4c-.98-.08-14.19,7.4-14.26,7.48-3.1,3.14-2.43,7.87-4.45,11.48-.37-1.91-1.78-3.2-2.61-4.84q-.94,15.38-2,16.1s.01-10.54-.17-14l-2.27,23.38c.42,.16,.98,.38,1.41,.55-.05,.55-.13,1.29-.18,1.84-.43,.13-1,.31-1.43,.44-.05,.46-.12,1.07-.18,1.54,.31,.35,.71,.83,1.01,1.18,.01,0,.02,0,.17,.01-6.83,8.15-19.06,11.11-21.12,23.86-1.97,12.33,15.91,23.19,4.78,35.43-9.44-5.7-3.44-20.09-13.28-25.56-.1-.06-23.05,2.02-25.94,3.76-.1,.5-.24,1.16-.34,1.65,1.25,1.03,2.88,1.47,3.99,2.73-.39,.34-.9,.78-1.29,1.11-.11-.06-14.56-3.45-18.28-.46-2.09,1.68-10.98,11.12-12.47,16.14-1.14,3.88,3.24,5.53,3.31,8.92,.12,5.31-4.42,9.7-2.82,15.32,1.3,4.54,5.19,13.17,16.57,19.97,4.86,2.9,7.59-3.3,11.83-3.01,2.63-28.96,14.94-18.62,16.33-17.34q-1.18,7.06-4.37,14.85,1.77,3.92-.66,12.33c7.39,.52,14.83-3.49,22.15,.37,.05,.02,4.08,7.26,2.72,17.07-2.23,16.22,21.88,5.23,31.25,12.17,2.82-26.1,27.79-22.18,59.4-17.23,1.04,.16,2.4,.6,3.35,1.08,6.53,3.27,10.62,9.81,16.72,13.66,7.7,4.86,17.27,3.29,25.03,7.9,5.94,3.53,10.19,9.79,15.87,13.65,3.33,3.75,3.82,10.26,9.23,12.33,9.31,2.42,18.8,4.12,27.99,7.07,6.17,1.98,10.39,7.81,16.83,9.27,1.98,.45,3.95-1.1,5.95-.04,2.81,1.49-.16,4.65,.26,6.97,.28,1.54,1.48,2.67,1.75,4.21ZM58.63,161.45s.05-.09,.08-.13v.02l-.08,.12Zm172.77,210.83c-1.69,1.19,.49,3.47,2.57,3.83,1.47,.25,6.19-.43,6.39-.93,.11-.26-.24-.86-3.74-1.99-3.87-1.25-4.44-1.11-5.22-.91Z"/><path class="cls-12" d="M35.68,756.55c0,1.55,.81,2.33,2.44,2.33v2.33H21.1v-2.33c.51,0,.98-.19,1.38-.58,.4-.39,.61-.97,.61-1.75v-51.54H4.86c-.66,0-1.31,.22-1.93,.65-.63,.43-.94,1.25-.94,2.46H0v-18.13H1.99c0,1.21,.31,2.03,.94,2.46,.62,.43,1.27,.65,1.93,.65H53.92c.66,0,1.31-.22,1.93-.65,.63-.43,.94-1.25,.94-2.46h1.99v18.13h-1.99c0-1.2-.31-2.02-.94-2.46s-1.27-.65-1.93-.65h-18.23v51.54Z"/><path class="cls-12" d="M72.92,758.88c.59,0,1.1-.19,1.55-.58,.44-.39,.66-.97,.66-1.75v-59.05c0-.78-.22-1.31-.66-1.62-.44-.3-.96-.45-1.55-.45v-2.33h20.66v2.33c-.37,0-.76,.13-1.16,.39-.41,.26-.61,.65-.61,1.17,0,.43,.14,.99,.44,1.69,.29,.69,.62,1.42,.99,2.2l15.8,33.67,15.91-33.28c.51-1.12,.9-2.01,1.16-2.66,.26-.65,.39-1.23,.39-1.75,0-.95-.48-1.43-1.44-1.43v-2.33h20.44v2.33c-.59,0-1.1,.15-1.55,.45-.44,.31-.66,.84-.66,1.62v59.05c0,.78,.22,1.36,.66,1.75,.44,.39,.96,.58,1.55,.58v2.33h-17.35v-2.33c1.99,0,2.99-.78,2.99-2.33v-42.99h-.22l-22.21,47.65h-.33l-21.76-47.79h-.22v43.13c0,1.55,1.03,2.33,3.09,2.33v2.33h-16.58v-2.33Z"/><path class="cls-12" d="M156.89,758.88c.88-.17,1.6-.67,2.15-1.49,.55-.82,.98-1.58,1.27-2.27l16.46-42.08c.44-1.21,.79-2.18,1.05-2.91,.26-.73,.39-1.45,.39-2.14,0-.52-.09-.84-.28-.97-.18-.13-.39-.28-.61-.46v-2.33h16.68v2.33c-.22,.17-.46,.31-.72,.39s-.39,.43-.39,1.04c0,.52,.16,1.14,.5,1.88,.33,.73,.68,1.57,1.05,2.52l17.9,44.03c.36,.78,.77,1.34,1.21,1.69s.92,.6,1.44,.78v2.33h-15.69v-1.95c.37,0,.76-.13,1.16-.39s.61-.73,.61-1.43c0-.52-.07-.99-.22-1.42s-.33-.99-.55-1.69l-2.99-7.38h-23.65l-3.09,6.99c-.29,.69-.53,1.32-.72,1.88s-.27,1.05-.27,1.49c0,.69,.18,1.12,.55,1.29s.88,.26,1.55,.26v2.33h-14.8v-2.33Zm36.9-21.5l-8.95-21.75-7.85,21.75h16.8Z"/><path class="cls-12" d="M225.61,758.88c1.33,0,1.99-.65,1.99-1.95v-48.43c0-1.29-.66-1.95-1.99-1.95v-2.33h16.24v2.33c-.52,.09-.78,.31-.78,.65,0,.43,.81,1.6,2.43,3.49l26.52,32.89v-35.09c0-1.29-.73-1.95-2.21-1.95v-2.33h13.48v2.33c-1.33,0-1.99,.65-1.99,1.95v48.43c0,1.29,.66,1.95,1.99,1.95v2.33h-14.37v-2.33c.51,0,.78-.22,.78-.65,0-.34-.35-.95-1.05-1.81-.7-.86-1.5-1.85-2.38-2.97l-27.4-34.19v37.68c0,1.29,.78,1.95,2.32,1.95v2.33h-13.59v-2.33Z"/><path class="cls-12" d="M292.02,758.88c.88-.17,1.6-.67,2.15-1.49,.55-.82,.98-1.58,1.27-2.27l16.46-42.08c.44-1.21,.79-2.18,1.05-2.91,.26-.73,.39-1.45,.39-2.14,0-.52-.09-.84-.28-.97-.18-.13-.39-.28-.61-.46v-2.33h16.68v2.33c-.22,.17-.46,.31-.72,.39s-.39,.43-.39,1.04c0,.52,.16,1.14,.5,1.88,.33,.73,.68,1.57,1.05,2.52l17.9,44.03c.36,.78,.77,1.34,1.21,1.69s.92,.6,1.44,.78v2.33h-15.69v-1.95c.37,0,.76-.13,1.16-.39s.61-.73,.61-1.43c0-.52-.07-.99-.22-1.42s-.33-.99-.55-1.69l-2.99-7.38h-23.64l-3.09,6.99c-.29,.69-.53,1.32-.72,1.88s-.27,1.05-.27,1.49c0,.69,.18,1.12,.55,1.29s.88,.26,1.55,.26v2.33h-14.8v-2.33Zm36.9-21.5l-8.95-21.75-7.84,21.75h16.79Z"/><path class="cls-12" d="M403.82,723.01l-1.33-.9c.15-.86,.22-1.34,.22-1.43,0-.78-.48-1.62-1.43-2.52-.96-.91-2.21-1.75-3.76-2.52s-3.3-1.4-5.25-1.88c-1.95-.48-3.92-.71-5.91-.71-2.73,0-5.3,.37-7.74,1.1-2.43,.73-4.57,1.9-6.41,3.5-1.84,1.6-3.31,3.65-4.42,6.15-1.1,2.51-1.65,5.57-1.65,9.2s.59,6.67,1.77,9.13c1.18,2.46,2.7,4.45,4.58,5.96,1.88,1.51,3.96,2.61,6.24,3.31,2.28,.69,4.49,1.04,6.63,1.04,3.17,0,6.17-.26,9.01-.78,2.84-.52,5.43-1.51,7.79-2.98v-8.16h-11.38c-.81,0-1.51,.2-2.1,.58-.59,.39-.96,1.1-1.1,2.14h-1.99v-13.34h1.99c.15,.87,.51,1.43,1.1,1.69s1.29,.39,2.1,.39h21.66v2.33c-.66,.35-1.1,.73-1.33,1.17s-.33,1.08-.33,1.94v12.3c0,.78,.09,1.32,.28,1.62s.64,.63,1.38,.97v1.55c-.66,.52-1.72,1.23-3.15,2.14-1.44,.91-3.24,1.79-5.42,2.66s-4.7,1.58-7.57,2.14-6.08,.84-9.61,.84c-4.79,0-9.11-.63-12.98-1.88-3.87-1.25-7.15-3.13-9.83-5.64-2.69-2.5-4.75-5.55-6.19-9.13-1.43-3.58-2.15-7.66-2.15-12.24s.72-8.65,2.15-12.24c1.44-3.58,3.5-6.65,6.19-9.2,2.69-2.54,5.97-4.49,9.83-5.82,3.86-1.34,8.19-2.01,12.98-2.01,2.87,0,5.42,.31,7.62,.91,2.21,.6,4.13,1.25,5.74,1.94,1.7,.69,3.06,1.34,4.09,1.95,1.03,.6,1.8,.9,2.32,.9,.59,0,1.03-.06,1.33-.19,.29-.13,.66-.41,1.1-.84l1.33,.78-6.41,14.12Z"/><path class="cls-12" d="M471,716.28c0-1.64-1.15-2.46-3.43-2.46h-26.96v12.95h17.02c1.25,0,2.17-.11,2.76-.33,.59-.21,.89-.79,.89-1.75h1.99v13.72h-2.21c.22-.95-.08-1.53-.89-1.75-.81-.22-1.95-.33-3.42-.33h-16.13v15.28h28.28c.88,0,1.62-.24,2.21-.72,.59-.47,.88-1.1,.88-1.87h1.99v13.6h-1.99c0-.78-.29-1.21-.88-1.29-.59-.09-1.33-.13-2.21-.13h-40.55v-2.33c.37,0,.73-.15,1.1-.45s.55-.8,.55-1.49v-48.43c0-.69-.18-1.19-.55-1.49s-.73-.46-1.1-.46v-2.33h39.22c2.28,0,3.43-.78,3.43-2.33h1.99v14.38h-1.99Z"/><path class="cls-12" d="M490.08,757.33c.36-.08,.68-.26,.94-.52,.26-.26,.39-.86,.39-1.81v-47.4c0-1.2-.09-1.94-.28-2.2s-.53-.39-1.05-.39v-2.33h15.36v2.33c-.74,0-1.1,.39-1.1,1.17,0,.34,.13,.8,.39,1.36,.26,.56,.64,1.36,1.16,2.39l13.48,29.14,13.59-29.01c.52-1.04,.92-1.88,1.22-2.52,.29-.65,.44-1.1,.44-1.36,0-.78-.29-1.17-.88-1.17v-2.33h15.58v2.33c-.37,0-.72,.11-1.05,.33-.33,.22-.5,.67-.5,1.36v48.69c0,.69,.16,1.19,.5,1.49,.33,.3,.68,.45,1.05,.45v2.33h-12.81v-2.33c1.55,0,2.21-.65,1.99-1.95v-36.39h-.22l-18.78,40.66h-.88l-17.79-40.66h-.11v36.39c0,1.29,.63,1.95,1.88,1.95v2.33h-12.49v-2.33Z"/><path class="cls-12" d="M612.2,716.28c0-1.64-1.15-2.46-3.43-2.46h-26.96v12.95h17.02c1.25,0,2.17-.11,2.76-.33,.59-.21,.89-.79,.89-1.75h1.99v13.72h-2.21c.22-.95-.08-1.53-.89-1.75-.81-.22-1.95-.33-3.42-.33h-16.13v15.28h28.28c.88,0,1.62-.24,2.21-.72,.59-.47,.88-1.1,.88-1.87h1.99v13.6h-1.99c0-.78-.29-1.21-.88-1.29-.59-.09-1.33-.13-2.21-.13h-40.55v-2.33c.37,0,.73-.15,1.1-.45s.55-.8,.55-1.49v-48.43c0-.69-.18-1.19-.55-1.49s-.73-.46-1.1-.46v-2.33h39.22c2.28,0,3.43-.78,3.43-2.33h1.99v14.38h-1.99Z"/><path class="cls-12" d="M630.88,758.88c1.33,0,1.99-.65,1.99-1.95v-48.43c0-1.29-.66-1.95-1.99-1.95v-2.33h16.24v2.33c-.52,.09-.78,.31-.78,.65,0,.43,.81,1.6,2.43,3.49l26.52,32.89v-35.09c0-1.29-.73-1.95-2.21-1.95v-2.33h13.48v2.33c-1.33,0-1.99,.65-1.99,1.95v48.43c0,1.29,.66,1.95,1.99,1.95v2.33h-14.37v-2.33c.51,0,.78-.22,.78-.65,0-.34-.35-.95-1.05-1.81-.7-.86-1.5-1.85-2.38-2.97l-27.4-34.19v37.68c0,1.29,.78,1.95,2.32,1.95v2.33h-13.59v-2.33Z"/><path class="cls-12" d="M716.28,758.88c.37,0,.73-.15,1.1-.45s.55-.8,.55-1.49v-43.12h-14.37c-.59,0-1.14,.17-1.65,.52-.52,.34-.78,.9-.78,1.68h-1.99v-14.89h1.99c0,1.21,.26,2.03,.78,2.46,.51,.43,1.06,.64,1.65,.64h39.34c.59,0,1.14-.21,1.65-.64s.78-1.25,.78-2.46h1.99v14.89h-1.99c0-.78-.26-1.34-.78-1.68-.51-.35-1.07-.52-1.65-.52h-14.37v43.12c0,1.29,.66,1.95,1.99,1.95v2.33h-14.25v-2.33Z"/><path class="cls-1" d="M113.03,849.02c-.22,0-.43-.02-.61-.07-.18-.04-.39-.07-.61-.07-.44,0-1.5,.52-3.15,1.55-1.66,1.04-3.76,2.2-6.3,3.5-2.54,1.29-5.43,2.41-8.67,3.37-3.24,.95-6.63,1.43-10.17,1.43-4.64,0-9.09-.69-13.36-2.08-4.27-1.38-8.05-3.52-11.33-6.41-3.28-2.89-5.87-6.5-7.79-10.82-1.92-4.31-2.87-9.36-2.87-15.15s.96-10.73,2.87-15.09c1.92-4.36,4.51-8,7.79-10.94,3.28-2.93,7.05-5.14,11.33-6.61,4.27-1.46,8.72-2.2,13.36-2.2,3.76,0,7.17,.34,10.22,1.04,3.05,.69,5.72,1.42,8.01,2.2,2.28,.78,4.08,1.51,5.41,2.2,1.33,.69,2.14,1.04,2.43,1.04,.37,0,.68-.22,.94-.64,.26-.43,.46-.78,.61-1.04l1.66,1.55-8.62,15.67-1.1-.91c0-.26-.02-.52-.06-.78s-.09-.56-.16-.91c-.15-.95-.88-1.92-2.21-2.91-1.33-.99-2.97-1.88-4.92-2.66-1.95-.78-4.02-1.43-6.19-1.95-2.17-.52-4.18-.78-6.02-.78-3.09,0-6.06,.52-8.89,1.55-2.84,1.04-5.3,2.55-7.4,4.53-2.1,1.99-3.78,4.43-5.03,7.32-1.25,2.89-1.88,6.2-1.88,9.91s.62,7.02,1.88,9.91c1.25,2.89,2.93,5.33,5.03,7.32,2.1,1.99,4.56,3.5,7.4,4.53,2.84,1.04,5.8,1.55,8.89,1.55,2.36,0,4.82-.33,7.4-.98,2.58-.64,4.94-1.46,7.08-2.46,2.13-.99,3.92-2.11,5.35-3.37,1.44-1.25,2.16-2.44,2.16-3.57,0-.6-.15-1.12-.44-1.55l1.55-1.04,7.29,13.73-.88,1.04Z"/><path class="cls-5" d="M155.68,800.58c4.05,0,7.86,.61,11.43,1.81,3.58,1.21,6.68,3.02,9.34,5.44,2.66,2.42,4.75,5.46,6.3,9.13,1.55,3.67,2.32,7.97,2.32,12.89s-.78,9.22-2.32,12.89c-1.55,3.67-3.64,6.71-6.3,9.13-2.65,2.41-5.76,4.17-9.34,5.25-3.57,1.08-7.38,1.62-11.43,1.62s-7.87-.54-11.44-1.62c-3.57-1.08-6.68-2.83-9.34-5.25-2.65-2.41-4.75-5.46-6.3-9.13-1.55-3.67-2.32-7.97-2.32-12.89s.77-9.21,2.32-12.89c1.55-3.67,3.65-6.71,6.3-9.13,2.65-2.41,5.76-4.23,9.34-5.44,3.57-1.2,7.38-1.81,11.44-1.81Zm0,9.59c-2.36,0-4.66,.45-6.91,1.36-2.25,.91-4.25,2.2-6.02,3.88-1.77,1.69-3.19,3.74-4.25,6.15-1.07,2.41-1.6,5.18-1.6,8.29s.53,5.87,1.6,8.29c1.06,2.42,2.49,4.47,4.25,6.15,1.77,1.68,3.77,2.97,6.02,3.88,2.25,.9,4.55,1.36,6.91,1.36s4.66-.46,6.91-1.36c2.25-.91,4.25-2.2,6.02-3.88,1.77-1.69,3.19-3.73,4.25-6.15,1.06-2.41,1.6-5.18,1.6-8.29s-.53-5.87-1.6-8.29c-1.07-2.41-2.49-4.47-4.25-6.15-1.77-1.68-3.78-2.97-6.02-3.88-2.25-.9-4.55-1.36-6.91-1.36Z"/><path class="cls-6" d="M198.44,856.01c1.33,0,1.99-.65,1.99-1.95v-48.43c0-1.29-.66-1.95-1.99-1.95v-2.33h16.24v2.33c-.52,.09-.78,.31-.78,.65,0,.43,.81,1.6,2.43,3.49l26.52,32.89v-35.09c0-1.29-.73-1.95-2.21-1.95v-2.33h13.48v2.33c-1.33,0-1.99,.65-1.99,1.95v48.43c0,1.29,.66,1.95,1.99,1.95v2.33h-14.37v-2.33c.51,0,.78-.22,.78-.65,0-.34-.35-.95-1.05-1.81-.7-.86-1.5-1.85-2.38-2.97l-27.4-34.19v37.68c0,1.29,.78,1.95,2.32,1.95v2.33h-13.59v-2.33Z"/><path class="cls-2" d="M275.44,838.53c0,.34-.02,.71-.06,1.1-.04,.39-.06,.79-.06,1.23,0,1.29,.7,2.48,2.1,3.56,1.4,1.08,3.07,1.99,5.02,2.72,1.95,.73,3.9,1.32,5.86,1.75,1.95,.43,3.48,.65,4.59,.65,1.03,0,2.3-.08,3.81-.26,1.51-.17,3-.54,4.48-1.1s2.73-1.34,3.76-2.33c1.03-.99,1.55-2.31,1.55-3.95,0-1.9-.9-3.28-2.71-4.14-1.81-.86-4.07-1.53-6.8-2.01s-5.67-.95-8.84-1.43c-3.17-.48-6.11-1.25-8.84-2.33-2.73-1.08-4.99-2.63-6.8-4.66-1.8-2.03-2.71-4.9-2.71-8.61,0-5.53,1.95-9.93,5.86-13.21,3.9-3.28,9.39-4.92,16.46-4.92,3.46,0,6.43,.33,8.89,.97,2.47,.65,4.55,1.36,6.24,2.14,1.7,.78,3.08,1.49,4.14,2.14,1.07,.65,1.86,.97,2.38,.97,.59,0,1.03-.1,1.33-.32,.29-.22,.66-.46,1.1-.72l1.21,1.43-5.52,12.17-1.99-.78c-.07-.52-.15-1.04-.22-1.55s-.41-1.04-.99-1.55c-1.47-1.46-3.76-2.72-6.85-3.75-3.09-1.04-6.56-1.55-10.38-1.55-1.47,0-2.87,.11-4.2,.32-1.33,.22-2.51,.58-3.53,1.1-1.03,.52-1.84,1.19-2.43,2.01-.59,.83-.88,1.84-.88,3.05,0,1.9,.9,3.26,2.7,4.08,1.81,.83,4.07,1.47,6.8,1.95,2.72,.48,5.67,.95,8.84,1.42,3.17,.48,6.11,1.28,8.84,2.4,2.72,1.12,4.99,2.76,6.79,4.92,1.8,2.16,2.71,5.14,2.71,8.94s-.79,6.91-2.37,9.32c-1.59,2.42-3.56,4.32-5.91,5.7-2.36,1.39-4.95,2.29-7.79,2.72-2.84,.43-5.51,.65-8.01,.65s-4.99-.28-7.46-.84c-2.47-.56-4.72-1.21-6.74-1.95-2.03-.73-3.74-1.42-5.14-2.07-1.4-.64-2.25-.97-2.54-.97-.51,0-.96,.26-1.33,.78l-1.55-1.29,5.08-14.51,2.1,.65Z"/><path class="cls-3" d="M348.58,803.7c-1.62,0-2.43,.65-2.43,1.95v29.74c0,4.16,1.29,7.49,3.87,10,2.58,2.51,6.52,3.76,11.82,3.76s9.24-1.25,11.82-3.76c2.57-2.51,3.86-5.84,3.86-10v-29.74c0-1.3-.92-1.95-2.76-1.95v-2.34h15.36v2.33c-1.62,0-2.43,.65-2.43,1.95v32.76c0,2.68-.52,5.25-1.55,7.71-1.03,2.46-2.6,4.64-4.7,6.54-2.1,1.9-4.79,3.39-8.07,4.47-3.28,1.08-7.13,1.62-11.55,1.62s-8.27-.54-11.55-1.62c-3.28-1.08-5.97-2.57-8.07-4.47-2.1-1.9-3.66-4.08-4.7-6.54-1.03-2.46-1.55-5.03-1.55-7.71v-32.76c0-.69-.22-1.19-.66-1.49s-1.29-.46-2.54-.46v-2.33h15.8v2.34Z"/><path class="cls-4" d="M422.72,801.36v2.33c-1.7,0-2.54,.65-2.54,1.95v43.13h29.83c.88,0,1.62-.24,2.21-.72,.59-.47,.88-1.14,.88-2.01h1.99v13.6h-1.99c0-.69-.29-1.08-.88-1.16-.59-.09-1.33-.13-2.21-.13h-43.31v-2.33c1.92,0,2.87-.65,2.87-1.95v-48.43c0-1.29-.96-1.95-2.87-1.95v-2.33h16.02Z"/><path class="cls-8" d="M480.39,856.01c.37,0,.73-.15,1.1-.45s.55-.8,.55-1.49v-43.12h-14.37c-.59,0-1.14,.17-1.65,.52-.52,.34-.78,.9-.78,1.68h-1.99v-14.89h1.99c0,1.21,.26,2.03,.78,2.46,.51,.43,1.06,.64,1.65,.64h39.34c.59,0,1.14-.21,1.65-.64,.51-.43,.78-1.25,.78-2.46h1.99v14.89h-1.99c0-.78-.26-1.34-.78-1.68-.51-.35-1.07-.52-1.65-.52h-14.37v43.12c0,1.29,.66,1.95,1.99,1.95v2.33h-14.25v-2.33Z"/><path class="cls-7" d="M524.92,856.01c1.18,0,1.99-.15,2.43-.45s.66-.8,.66-1.49v-48.43c0-.69-.22-1.19-.66-1.49s-1.25-.46-2.43-.46v-2.33h16.8v2.33c-2.07,0-3.09,.65-3.09,1.95v48.43c0,1.29,1.03,1.95,3.09,1.95v2.33h-16.8v-2.33Z"/><path class="cls-11" d="M560.72,856.01c1.33,0,1.99-.65,1.99-1.95v-48.43c0-1.29-.66-1.95-1.99-1.95v-2.33h16.24v2.33c-.52,.09-.78,.31-.78,.65,0,.43,.81,1.6,2.43,3.49l26.52,32.89v-35.09c0-1.29-.73-1.95-2.21-1.95v-2.33h13.48v2.33c-1.33,0-1.99,.65-1.99,1.95v48.43c0,1.29,.66,1.95,1.99,1.95v2.33h-14.37v-2.33c.51,0,.78-.22,.78-.65,0-.34-.35-.95-1.05-1.81-.7-.86-1.5-1.85-2.38-2.97l-27.4-34.19v37.68c0,1.29,.78,1.95,2.32,1.95v2.33h-13.59v-2.33Z"/><path class="cls-10" d="M677.5,820.14l-1.33-.9c.15-.86,.22-1.34,.22-1.43,0-.78-.48-1.62-1.43-2.52-.96-.91-2.21-1.75-3.76-2.52-1.55-.78-3.3-1.4-5.25-1.88-1.95-.48-3.92-.71-5.91-.71-2.73,0-5.3,.37-7.74,1.1-2.43,.73-4.57,1.9-6.41,3.5-1.84,1.6-3.31,3.65-4.42,6.15-1.1,2.51-1.65,5.57-1.65,9.2s.59,6.67,1.77,9.13c1.18,2.46,2.7,4.45,4.58,5.96,1.88,1.51,3.96,2.61,6.24,3.31,2.28,.69,4.49,1.04,6.63,1.04,3.17,0,6.17-.26,9.01-.78,2.84-.52,5.43-1.51,7.79-2.98v-8.16h-11.38c-.81,0-1.51,.2-2.1,.58-.59,.39-.96,1.1-1.1,2.14h-1.99v-13.34h1.99c.15,.87,.51,1.43,1.1,1.69,.59,.26,1.29,.39,2.1,.39h21.66v2.33c-.66,.35-1.1,.73-1.33,1.17s-.33,1.08-.33,1.94v12.3c0,.78,.09,1.32,.28,1.62s.64,.63,1.38,.97v1.55c-.66,.52-1.72,1.23-3.15,2.14-1.44,.91-3.24,1.79-5.42,2.66-2.17,.86-4.7,1.58-7.57,2.14s-6.08,.84-9.61,.84c-4.79,0-9.11-.63-12.98-1.88-3.87-1.25-7.15-3.13-9.83-5.64-2.69-2.5-4.75-5.55-6.19-9.13-1.43-3.58-2.15-7.66-2.15-12.24s.72-8.65,2.15-12.24c1.44-3.58,3.5-6.65,6.19-9.2,2.69-2.54,5.97-4.49,9.83-5.82,3.86-1.34,8.19-2.01,12.98-2.01,2.87,0,5.42,.31,7.62,.91,2.21,.6,4.13,1.25,5.74,1.94,1.7,.69,3.06,1.34,4.09,1.95,1.03,.6,1.8,.9,2.32,.9,.59,0,1.03-.06,1.33-.19,.29-.13,.66-.41,1.1-.84l1.33,.78-6.41,14.12Z"/></g></g></svg>